<svg width="112" height="112" viewBox="0 0 112 112" fill="none" xmlns="http://www.w3.org/2000/svg">
<g clip-path="url(#clip0_5064_2559)">
<path d="M112.014 0H0V112.014H112.014V0Z" fill="white"/>
<path d="M20.526 59.553C20.526 59.5392 20.524 59.5254 20.522 59.5115L20.5082 59.4681L18.2304 51.8444C18.2047 51.7456 18.1158 51.6726 18.0091 51.6726C17.9025 51.6726 17.8195 51.7397 17.7958 51.8385L15.5022 59.4819L15.4923 59.5135C15.4903 59.5274 15.4883 59.5412 15.4883 59.557C15.4883 59.6775 15.5871 59.7763 15.7096 59.7763H20.3067C20.4292 59.7763 20.528 59.6775 20.528 59.557M96.6025 59.553C96.6025 59.5392 96.6025 59.5254 96.5986 59.5115L96.5848 59.4681L94.305 51.8444C94.2793 51.7456 94.1904 51.6726 94.0837 51.6726C93.977 51.6726 93.896 51.7397 93.8704 51.8385L91.5767 59.4819L91.5669 59.5135C91.5629 59.5274 91.5629 59.5412 91.5629 59.557C91.5629 59.6775 91.6617 59.7763 91.7822 59.7763H96.3813C96.5018 59.7763 96.6006 59.6775 96.6006 59.557M106.243 67.9827C106.243 68.1882 106.075 68.3541 105.872 68.3541H99.8266C99.6706 68.3541 99.5382 68.2613 99.4809 68.1269V68.119L98.4299 65.0075C98.3726 64.8732 98.2403 64.7784 98.0842 64.7784H90.0161C89.86 64.7784 89.7276 64.8732 89.6703 65.0075L88.5304 68.125C88.4731 68.2593 88.3408 68.3541 88.1887 68.3541H82.2087C81.9993 68.3541 81.8333 68.1882 81.8333 67.9827C81.8333 67.9353 81.8412 67.8899 81.859 67.8484L81.8649 67.8306L91.4938 43.8889L91.5056 43.8612C91.5629 43.7328 91.6933 43.6439 91.8454 43.6439H96.3299C96.4761 43.6439 96.6006 43.7308 96.6638 43.8553L96.6816 43.9027L106.204 67.8187L106.223 67.8701C106.235 67.9057 106.243 67.9432 106.243 67.9827ZM81.9953 52.0499C81.9953 52.2553 81.8274 52.4213 81.6239 52.4213H75.5787C75.4483 52.4213 75.3357 52.3561 75.2686 52.2593C75.2567 52.2356 75.2449 52.2139 75.231 52.1901C74.3321 50.5208 72.5423 48.7211 69.6284 48.7211C65.3789 48.7211 63.0043 52.4272 63.0043 55.9318C63.0043 59.6716 65.5469 63.2789 69.6619 63.2789C72.805 63.2789 74.4606 61.1868 75.2093 59.8948C75.2765 59.796 75.391 59.7289 75.5214 59.7289H81.5548C81.7582 59.7289 81.9262 59.8968 81.9262 60.1022C81.9262 60.1437 81.9183 60.1813 81.9064 60.2188C81.9025 60.2287 81.8985 60.2405 81.8946 60.2504C80.1067 65.4461 75.316 68.8204 69.7291 68.8204C61.9652 68.8204 56.6786 62.6428 56.6786 55.9654C56.6786 49.6535 61.5641 43.1757 69.6619 43.1757C76.7068 43.1757 80.7705 48.0968 81.9657 51.9017C81.9696 51.9195 81.9775 51.9373 81.9835 51.9531C81.9914 51.9827 81.9953 52.0143 81.9953 52.0479M55.1436 52.0499C55.1436 52.2553 54.9757 52.4213 54.7722 52.4213H48.727C48.5986 52.4213 48.484 52.3561 48.4168 52.2593C48.405 52.2356 48.3912 52.2139 48.3793 52.1901C47.4804 50.5208 45.6926 48.7211 42.7786 48.7211C38.5292 48.7211 36.1526 52.4272 36.1526 55.9318C36.1526 59.6716 38.6951 63.2789 42.8102 63.2789C45.9553 63.2789 47.6088 61.1868 48.3576 59.8948C48.4267 59.796 48.5393 59.7289 48.6697 59.7289H54.703C54.9065 59.7289 55.0745 59.8968 55.0745 60.1022C55.0745 60.1437 55.0666 60.1813 55.0547 60.2188C55.0507 60.2287 55.0468 60.2405 55.0448 60.2504C53.255 65.4461 48.4643 68.8204 42.8794 68.8204C35.1174 68.8204 29.8289 62.6428 29.8289 55.9654C29.8289 49.6535 34.7164 43.1757 42.8122 43.1757C49.857 43.1757 53.9227 48.0968 55.1159 51.9017C55.1219 51.9195 55.1258 51.9373 55.1317 51.9531C55.1396 51.9827 55.1456 52.0143 55.1456 52.0479M20.607 43.9027L30.1272 67.8187L30.1489 67.8701C30.1608 67.9057 30.1687 67.9432 30.1687 67.9827C30.1687 68.1882 30.0007 68.3541 29.7973 68.3541H23.7521C23.596 68.3541 23.4636 68.2613 23.4063 68.1269L23.4024 68.119L22.3554 65.0075C22.2981 64.8732 22.1637 64.7784 22.0096 64.7784H13.9415C13.7854 64.7784 13.653 64.8732 13.5958 65.0075L12.4559 68.125C12.4005 68.2593 12.2662 68.3541 12.1141 68.3541H6.13212C5.92468 68.3541 5.75676 68.1882 5.75676 67.9827C5.75676 67.9353 5.76664 67.8899 5.78442 67.8484L5.79034 67.8306L15.4192 43.8889L15.431 43.8612C15.4903 43.7328 15.6187 43.6439 15.7708 43.6439H20.2573C20.4015 43.6439 20.528 43.7308 20.5892 43.8553L20.609 43.9027H20.607ZM112 0H0V112H112V0Z" fill="#C80000"/>
</g>
<defs>
<clipPath id="clip0_5064_2559">
<rect width="112" height="112" fill="white"/>
</clipPath>
</defs>
</svg>
